<svg width="116" height="98" viewBox="0 0 116 98" fill="none" xmlns="http://www.w3.org/2000/svg">
<path fill-rule="evenodd" clip-rule="evenodd" d="M109.19 42.3449L105.003 39.2241V90.5221H111.696C112.762 90.5221 113.783 90.9161 114.536 91.6172C115.289 92.3184 115.713 93.2694 115.713 94.2611C115.713 95.2527 115.289 96.2037 114.536 96.9049C113.783 97.6061 112.762 98 111.696 98H4.59948C3.53433 98 2.51281 97.6061 1.75964 96.9049C1.00647 96.2037 0.583344 95.2527 0.583344 94.2611C0.583344 93.2694 1.00647 92.3184 1.75964 91.6172C2.51281 90.9161 3.53433 90.5221 4.59948 90.5221H11.293V39.2241L7.1109 42.3449C6.69882 42.6516 6.22589 42.8797 5.7191 43.0163C5.21231 43.1528 4.68159 43.1951 4.15725 43.1407C3.63291 43.0863 3.1252 42.9363 2.66313 42.6993C2.20106 42.4622 1.79367 42.1427 1.46422 41.7591C1.13476 41.3755 0.889701 40.9352 0.743022 40.4634C0.596343 39.9915 0.55092 39.4975 0.609346 39.0093C0.667772 38.5212 0.828903 38.0485 1.08354 37.6183C1.33818 37.1881 1.68133 36.8089 2.09341 36.5022L45.6016 4.09815C49.1625 1.44532 53.5873 0 58.148 0C62.7086 0 67.1335 1.44532 70.6944 4.09815L114.203 36.5022C114.622 36.8063 114.972 37.1848 115.233 37.6159C115.494 38.0469 115.66 38.5219 115.722 39.0132C115.785 39.5045 115.742 40.0025 115.596 40.4782C115.45 40.954 115.204 41.398 114.872 41.7846C114.54 42.1712 114.13 42.4927 113.664 42.7304C113.198 42.9681 112.685 43.1173 112.157 43.1695C111.628 43.2216 111.094 43.1755 110.585 43.034C110.076 42.8924 109.602 42.6582 109.19 42.3449ZM58.148 18.2363C54.2424 18.2363 50.4969 19.6806 47.7352 22.2517C44.9736 24.8227 43.4221 28.3097 43.4221 31.9457C43.4221 35.5816 44.9736 39.0687 47.7352 41.6397C50.4969 44.2107 54.2424 45.6551 58.148 45.6551C62.0535 45.6551 65.7991 44.2107 68.5607 41.6397C71.3223 39.0687 72.8738 35.5816 72.8738 31.9457C72.8738 28.3097 71.3223 24.8227 68.5607 22.2517C65.7991 19.6806 62.0535 18.2363 58.148 18.2363ZM67.4975 50.9494C65.0397 50.6403 61.9713 50.6403 58.4104 50.6403H57.8856C54.3246 50.6403 51.2563 50.6403 48.7984 50.9494C46.1692 51.2784 43.6417 52.0212 41.5961 53.9256C39.5506 55.8299 38.7527 58.1829 38.3993 60.6307C38.0673 62.9189 38.0673 65.7755 38.0673 69.0906V90.5221H78.2287V68.4725C78.2287 65.4215 78.2072 62.7743 77.8967 60.6307C77.5432 58.1829 76.7454 55.8299 74.6998 53.9256C72.6543 52.0212 70.1321 51.2784 67.4975 50.9494Z" fill="#699BF7"/>
</svg>
